<?xml version="1.0" encoding="UTF-8" standalone="no"?>
<!DOCTYPE svg PUBLIC "-//W3C//DTD SVG 1.1//EN" "http://www.w3.org/Graphics/SVG/1.1/DTD/svg11.dtd">
<svg width="100%" height="100%" viewBox="0 0 600 600" version="1.1" xmlns="http://www.w3.org/2000/svg" xmlns:xlink="http://www.w3.org/1999/xlink" xml:space="preserve" xmlns:serif="http://www.serif.com/" style="fill-rule:evenodd;clip-rule:evenodd;stroke-linecap:round;stroke-linejoin:round;stroke-miterlimit:1.5;">
    <g transform="matrix(1.18367,0,0,1.13929,-53.5737,-55.1624)">
        <path d="M542.316,86.063C542.316,70.93 530.49,58.644 515.924,58.644L81.495,58.644C66.929,58.644 55.103,70.93 55.103,86.063L55.103,537.415C55.103,552.548 66.929,564.834 81.495,564.834L515.924,564.834C530.49,564.834 542.316,552.548 542.316,537.415L542.316,86.063Z" style="fill:rgb(32,32,32);"/>
    </g>
    <g transform="matrix(1.16692,0,0,1.16692,-77.8998,-51.6513)">
        <circle cx="323.845" cy="327.028" r="189.316" style="fill:rgb(27,27,27);stroke:white;stroke-width:2.5px;"/>
    </g>
    <g transform="matrix(0.222194,0,0,0.222194,228.043,257.3)">
        <circle cx="323.845" cy="327.028" r="189.316" style="fill:rgb(32,32,32);stroke:white;stroke-width:13.13px;"/>
    </g>
    <g transform="matrix(1,0,0,1,-169.481,-81.1029)">
        <circle cx="226.796" cy="138.356" r="21.769" style="fill:rgb(255,146,0);stroke:rgb(255,145,0);stroke-width:2.92px;"/>
    </g>
    <g transform="matrix(1,0,0,1,-88.5849,-81.1029)">
        <circle cx="226.796" cy="138.356" r="21.769" style="fill:rgb(255,146,0);stroke:rgb(255,145,0);stroke-width:2.92px;"/>
    </g>
</svg>
